<svg xmlns="http://www.w3.org/2000/svg" xmlns:xlink="http://www.w3.org/1999/xlink" width="150" height="64" viewBox="0 0 150 64">
    <defs>
        <path id="a" d="M0 .11v19.8h8.477V.11H0z"/>
    </defs>
    <g fill="none" fill-rule="evenodd">
        <g transform="translate(.429 43.643)">
            <mask id="b" fill="#fff">
                <use xlink:href="#a"/>
            </mask>
            <path fill="#FFF" d="M8.477.11v19.8H3.6V4.347h-3.6V.11z" mask="url(#b)"/>
        </g>
        <path fill="#FFF" d="M15.454 53.64c0 4.519.773 6.411 2.665 6.411 1.866 0 2.64-1.892 2.64-6.412 0-4.548-.774-6.413-2.64-6.413-1.892 0-2.665 1.865-2.665 6.413m9.97 0c0 6.47-2.613 10.056-7.305 10.056-4.744 0-7.33-3.587-7.33-10.056 0-6.469 2.586-10.028 7.33-10.028 4.692 0 7.304 3.56 7.304 10.028M31.2 53.64c0 4.519.773 6.411 2.665 6.411 1.866 0 2.64-1.892 2.64-6.412 0-4.548-.774-6.413-2.64-6.413-1.892 0-2.666 1.865-2.666 6.413m9.97 0c0 6.47-2.613 10.056-7.304 10.056-4.745 0-7.33-3.587-7.33-10.056 0-6.469 2.585-10.028 7.33-10.028 4.691 0 7.303 3.56 7.303 10.028M49.653 44.049v15.098h7.657v4.608H45.277V44.05zM67.9 58.385v-1.327h-2.826c-1.332 0-1.998.507-1.998 1.58 0 1.046.72 1.723 1.947 1.723 1.412 0 2.585-.818 2.877-1.976m4.665-4.775v9.944H67.9V61.83c-.933 1.272-2.399 1.95-4.344 1.95-3.092 0-4.932-1.977-4.932-4.773 0-2.911 1.946-4.577 5.518-4.633H67.9v-.17c0-1.44-.933-2.288-2.745-2.288-1.2 0-2.773.424-4.32 1.215l-1.305-3.39c2.266-1.074 4.345-1.667 6.718-1.667 3.972 0 6.291 2.034 6.317 5.536M84.622 55.984c0-2.29-1.253-3.814-3.092-3.814-1.865 0-3.12 1.554-3.12 3.814 0 2.259 1.255 3.812 3.12 3.812 1.839 0 3.092-1.553 3.092-3.812zm4.745-13.39v20.96h-4.745v-1.977c-.986 1.412-2.453 2.175-4.265 2.175-4.053 0-6.717-3.164-6.717-7.91 0-4.66 2.639-7.74 6.61-7.74 1.866 0 3.359.791 4.372 2.176v-7.684h4.745zM100.318 48.074v4.605c-2.639-.285-4.399.96-4.637 3.078v7.797h-4.746V48.272h4.746v2.542c.985-1.75 2.612-2.74 4.637-2.74M101.515 63.553h4.718v-15.28h-4.718v15.28zm4.878-19.63c0 1.58-1.04 2.683-2.506 2.683-1.466 0-2.507-1.103-2.507-2.684 0-1.583 1.041-2.684 2.507-2.684 1.466 0 2.506 1.101 2.506 2.684zM108.404 63.553h4.745v-20.96h-4.745zM115.254 63.553h4.745v-20.96h-4.745zM125.864 55.984c0 2.259 1.252 3.785 3.092 3.785 1.865 0 3.118-1.526 3.118-3.785 0-2.29-1.253-3.814-3.118-3.814-1.84 0-3.092 1.525-3.092 3.814m10.982-.085c0 4.716-3.146 7.824-7.89 7.824-4.745 0-7.864-3.108-7.864-7.824 0-4.69 3.119-7.797 7.864-7.797 4.744 0 7.89 3.108 7.89 7.797M143.243 51.55c-.8 0-1.359.31-1.359.958 0 2.006 7.57 1.046 7.543 6.356 0 3.137-2.585 4.915-6.104 4.915-2.425 0-4.744-.734-6.504-2.174l1.493-3.25c1.653 1.216 3.518 1.894 5.118 1.894.88 0 1.52-.31 1.52-.932 0-2.092-7.438-1.045-7.438-6.329 0-3.19 2.533-4.941 5.918-4.941 2.079 0 4.185.62 5.997 1.778l-1.599 3.277c-1.785-.988-3.411-1.553-4.585-1.553M83.641 33.755l8.125-9.027V11.887h-8.125V33.755zm-16.91-.006l7.996-8.908V11.887h-7.995V33.749zm-16.99-.213c2.672-2.9 5.345-5.803 8.018-8.702V11.753H49.74v21.782zM57.004 2.19l-6.107 7.485h7.364L63.65 2.19h-6.645zm2.714 11.78V35.31h5.052V4.09c-1.635 2.368-3.259 4.77-5.052 6.976v2.903zm14.23-11.748L67.76 9.81h7.47l5.46-7.588h-6.743zm2.738 11.865v21.222h4.994V4.313c-1.614 2.34-3.223 4.71-4.994 6.89v2.884zM90.989 2.222L84.8 9.81h7.471l5.46-7.588H90.99zm7.733 25.756V4.313c-1.616 2.34-3.223 4.71-4.996 6.89v22.494l4.996-5.72zm1.96-.95c0 .43.068.928 0 1.355-.153.967-1.235 1.822-1.835 2.506l-5.408 6.194c-.585.671-1.673.139-1.673-.735v-8.612l-8.412 9.347c-.237.264-.512.342-.77.304h-6.878c-.53 0-.98-.478-.98-1.039V27.853c-2.76 3.077-5.522 6.153-8.281 9.23-.24.265-.515.344-.775.304h-6.931c-.53 0-.98-.478-.98-1.039v-8.543l-8.307 9.016c-.595.647-1.673.156-1.673-.734V10.715c0-.245.088-.47.227-.65.018-.024.033-.05.053-.075.003-.002.005-.007.008-.011C50.591 6.885 53.001 3.61 55.67.656c.927-1.023 3.057-.544 4.277-.544h5.674c.139 0 .276.042.404.109.382.103.707.422.707.964v6.682C68.649 5.453 70.553 3.01 72.59.721c.905-1.019 2.878-.576 4.087-.576h5.984c.175 0 .346.062.496.163a.898.898 0 0 1 .416.492.939.939 0 0 1 .068.616V8.03c1.962-2.469 3.906-4.971 5.989-7.31.906-1.019 2.879-.576 4.088-.576h5.984c.173 0 .344.062.495.163a.905.905 0 0 1 .418.492.946.946 0 0 1 .067.616v25.611z"/>
    </g>
</svg>
